<svg width="19" height="21" viewBox="0 0 19 21" fill="none" xmlns="http://www.w3.org/2000/svg">
<g clip-path="url(#clip0_1718_555)">
<path d="M2.81681 20.3996C2.49867 20.3996 2.18432 20.3229 1.89648 20.173C1.28292 19.8478 0.900391 19.2266 0.900391 18.5542V2.44973C0.900391 1.77369 1.28292 1.15246 1.89648 0.827225C2.51003 0.501993 3.25994 0.527573 3.85077 0.889348L16.9021 8.94341C17.4551 9.28325 17.7846 9.86429 17.7846 10.5001C17.7846 11.1323 17.4551 11.717 16.9021 12.0569L3.85077 20.1073C3.53642 20.3009 3.17661 20.3996 2.81681 20.3996ZM3.17283 3.07461V17.9257L15.2092 10.5001L3.17283 3.07461Z" fill="white"/>
</g>
<defs>
<clipPath id="clip0_1718_555">
<rect width="17.6" height="19.8" fill="white" transform="translate(0.900391 0.599609)"/>
</clipPath>
</defs>
</svg>
